<svg preserveAspectRatio="none" width="100%" height="100%" overflow="visible" style="display: block;" viewBox="0 0 30 30" fill="none" xmlns="http://www.w3.org/2000/svg">
<g id="logos:dbt-icon" clip-path="url(#clip0_0_21)">
<path id="Vector" d="M28.7251 1.2477C29.4304 1.92586 29.8915 2.82094 30 3.79746C30 4.20434 29.8915 4.47563 29.6473 4.99102C29.4033 5.50629 26.3924 10.7143 25.4973 12.1519C24.9819 12.9928 24.7106 13.9964 24.7106 14.9728C24.7106 15.9765 24.9819 16.953 25.4973 17.7939C26.3924 19.2315 29.4032 24.4665 29.6474 24.9819C29.8915 25.4973 30 25.7413 30 26.1483C29.8915 27.1248 29.4574 28.0199 28.7523 28.6709C28.0741 29.3761 27.1791 29.8372 26.2296 29.9187C25.8229 29.9187 25.5516 29.8102 25.0632 29.5659C24.5749 29.3217 19.2586 26.3925 17.8211 25.4973C17.7124 25.443 17.604 25.3617 17.4683 25.3075L10.3617 21.1031C10.5244 22.4593 11.1211 23.7613 12.0976 24.7106C12.2875 24.9005 12.4773 25.0634 12.6945 25.226C12.5316 25.3073 12.3417 25.3889 12.1791 25.4973C10.7414 26.3924 5.50641 29.4032 4.99102 29.6474C4.47563 29.8915 4.23152 30 3.79746 30C2.82094 29.8915 1.92586 29.4574 1.27488 28.7523C0.569531 28.0741 0.108516 27.1791 0 26.2025C0.0270703 25.7957 0.135586 25.3888 0.352734 25.0362C0.596719 24.5208 3.60762 19.2858 4.5027 17.8481C5.01809 17.0072 5.28938 16.0308 5.28938 15.0272C5.28938 14.0236 5.01809 13.047 4.5027 12.2061C3.60762 10.7143 0.569648 5.47922 0.352617 4.96383C0.135586 4.61109 0.0270703 4.20434 0 3.79746C0.108516 2.82094 0.542578 1.92586 1.2477 1.2477C1.92586 0.542578 2.82094 0.108516 3.79746 0C4.20434 0.0270703 4.61121 0.135586 4.99102 0.352734C5.42496 0.542578 9.24961 2.7668 11.284 3.96023L11.745 4.23152C11.9077 4.33996 12.0434 4.42133 12.1519 4.47563L12.3689 4.61121L19.6111 8.89687C19.4484 7.26937 18.6076 5.77758 17.3055 4.77398C17.4684 4.69266 17.6583 4.61109 17.8209 4.5027C19.2586 3.60762 24.4936 0.569648 25.009 0.352617C25.3617 0.135586 25.7685 0.0270703 26.2025 0C27.163 0.109551 28.0551 0.550814 28.7251 1.2477ZM15.3798 16.9259L16.9259 15.3797C17.1429 15.1628 17.1429 14.8372 16.9259 14.6203L15.3797 13.0741C15.1628 12.8571 14.8372 12.8571 14.6203 13.0741L13.0741 14.6203C12.8571 14.8372 12.8571 15.1628 13.0741 15.3797L14.6203 16.9259C14.8102 17.1157 15.1629 17.1157 15.3798 16.9259Z" fill="var(--fill-0, #DBDBDB)"/>
</g>
<defs>
<clipPath id="clip0_0_21">
<rect width="30" height="30" fill="white"/>
</clipPath>
</defs>
</svg>
