<svg preserveAspectRatio="none" width="100%" height="100%" overflow="visible" style="display: block;" viewBox="0 0 29.2141 29.2294" fill="none" xmlns="http://www.w3.org/2000/svg">
<g id="Group">
<path id="Vector" fill-rule="evenodd" clip-rule="evenodd" d="M26.5529 0.0799089C25.9276 -0.0593872 25.2754 -0.0159076 24.6741 0.205164L2.30568 7.67035L2.29941 7.67244C1.73121 7.8662 1.22483 8.20771 0.832272 8.6619C0.439714 9.1161 0.175133 9.6666 0.0657014 10.2569C-0.0430517 10.797 -0.0164754 11.3557 0.143062 11.8832C0.302599 12.4106 0.590141 12.8903 0.980062 13.2797L6.38272 18.674L6.20528 25.4649C6.20051 25.6464 6.24316 25.826 6.32902 25.9859C6.41487 26.1459 6.54097 26.2807 6.69485 26.377C6.84873 26.4734 7.02507 26.5279 7.20647 26.5352C7.38787 26.5426 7.56804 26.5025 7.72921 26.4189L11.9336 24.2437L15.9355 28.2288C16.3407 28.6417 16.8461 28.9423 17.4024 29.1011C17.9586 29.2599 18.5465 29.2715 19.1086 29.1349C19.6718 29.0028 20.1917 28.7285 20.6186 28.3381C21.0455 27.9478 21.3651 27.4545 21.5469 26.9053V26.9032L29.01 4.54107C29.175 4.08779 29.2412 3.60444 29.204 3.12349C29.1668 2.64253 29.0272 2.17509 28.7945 1.75255C28.5618 1.33001 28.2413 0.962144 27.8547 0.673652C27.4681 0.385159 27.0242 0.182715 26.5529 0.0799089Z" fill="var(--fill-0, #ECECEC)"/>
<path id="Vector_2" d="M6.3809 18.6739L6.20345 25.4648C6.19869 25.6462 6.24134 25.8258 6.32719 25.9858C6.41305 26.1458 6.53914 26.2806 6.69302 26.3769C6.8469 26.4732 7.02325 26.5278 7.20465 26.5351C7.38604 26.5425 7.56622 26.5024 7.72739 26.4188L11.9318 24.2435L6.3809 18.6739Z" fill="var(--fill-0, #CFCFCF)"/>
<path id="Vector_3" fill-rule="evenodd" clip-rule="evenodd" d="M6.37672 18.8179L21.0837 8.13575C21.2224 8.035 21.34 7.90792 21.4296 7.76175C21.5192 7.61559 21.5791 7.45321 21.606 7.28388C21.6328 7.11455 21.626 6.94159 21.586 6.77488C21.546 6.60817 21.4736 6.45096 21.3729 6.31225C21.2721 6.17353 21.145 6.05602 20.9989 5.96641C20.8527 5.87681 20.6903 5.81687 20.521 5.79002C20.3517 5.76317 20.1787 5.76994 20.012 5.80994C19.8453 5.84993 19.6881 5.92237 19.5494 6.02312L4.59393 16.8869L6.3809 18.6739L6.37672 18.8179Z" fill="var(--fill-0, #CFCFCF)"/>
</g>
</svg>
