<svg preserveAspectRatio="none" width="100%" height="100%" overflow="visible" style="display: block;" viewBox="0 0 35.0714 35.0714" fill="none" xmlns="http://www.w3.org/2000/svg">
<g id="fluent:plug-connected-24-filled">
<path id="Vector" d="M28.4809 8.13948C29.2623 9.14576 29.815 10.3102 30.1005 11.5519C30.3861 12.7935 30.3976 14.0824 30.1343 15.329C29.871 16.5755 29.3392 17.7497 28.5759 18.7698C27.8126 19.7899 26.8362 20.6314 25.7146 21.2357C24.7662 21.7486 23.6249 21.433 22.8621 20.6716L14.4012 12.2092C13.6384 11.4464 13.3227 10.3051 13.8342 9.35674C14.4385 8.23492 15.28 7.25829 16.3002 6.49486C17.3205 5.73143 18.4948 5.19954 19.7415 4.93623C20.9883 4.67292 22.2774 4.68451 23.5192 4.97021C24.761 5.2559 25.9256 5.80883 26.9319 6.59049L30.2783 3.2441C30.3793 3.13938 30.5002 3.05583 30.6339 2.99832C30.7676 2.94082 30.9114 2.91052 31.0569 2.90919C31.2024 2.90786 31.3468 2.93552 31.4815 2.99056C31.6162 3.04561 31.7386 3.12693 31.8416 3.22978C31.9445 3.33264 32.0259 3.45497 32.0811 3.58963C32.1363 3.7243 32.1641 3.8686 32.1629 4.01413C32.1617 4.15965 32.1315 4.30348 32.0742 4.43722C32.0168 4.57096 31.9333 4.69193 31.8287 4.79308L28.4809 8.13948ZM4.79309 31.8272L8.13948 28.4809C9.14576 29.2623 10.3102 29.815 11.5519 30.1005C12.7935 30.3861 14.0825 30.3976 15.329 30.1343C16.5755 29.871 17.7497 29.3392 18.7698 28.5759C19.7899 27.8126 20.6314 26.8362 21.2357 25.7146C21.7486 24.7662 21.433 23.6249 20.6702 22.8621L12.2092 14.4012C11.4464 13.6384 10.3051 13.3227 9.35675 13.8342C8.23492 14.4385 7.25829 15.28 6.49486 16.3002C5.73143 17.3205 5.19954 18.4948 4.93623 19.7415C4.67292 20.9883 4.68451 22.2774 4.97021 23.5192C5.2559 24.761 5.80883 25.9256 6.59049 26.9319L3.2441 30.2783C3.13938 30.3793 3.05583 30.5002 2.99833 30.6339C2.94082 30.7676 2.91052 30.9114 2.90919 31.0569C2.90786 31.2024 2.93552 31.3468 2.99056 31.4815C3.04561 31.6162 3.12693 31.7386 3.22978 31.8416C3.33264 31.9445 3.45497 32.0259 3.58963 32.0811C3.7243 32.1363 3.8686 32.1641 4.01413 32.1629C4.15965 32.1617 4.30348 32.1315 4.43722 32.0741C4.57096 32.0168 4.69194 31.9319 4.79309 31.8272Z" fill="var(--fill-0, #DBDBDB)"/>
</g>
</svg>
