<svg preserveAspectRatio="none" width="100%" height="100%" overflow="visible" style="display: block;" viewBox="0 0 29.4453 33.6518" fill="none" xmlns="http://www.w3.org/2000/svg">
<g id="fa-brands:linkedin-in" clip-path="url(#clip0_0_8)">
<path id="Vector" d="M6.59102 29.4453H0.486374V9.78663H6.59102V29.4453ZM3.53541 7.10501C1.58334 7.10501 0 5.48814 0 3.53607C1.39721e-08 2.59843 0.37248 1.69918 1.0355 1.03616C1.69852 0.373144 2.59776 0.000664116 3.53541 0.000664116C4.47306 0.000664116 5.37231 0.373144 6.03532 1.03616C6.69834 1.69918 7.07082 2.59843 7.07082 3.53607C7.07082 5.48814 5.48682 7.10501 3.53541 7.10501ZM29.4388 29.4453H23.3472V19.8756C23.3472 17.5949 23.3012 14.6701 20.1733 14.6701C16.9994 14.6701 16.513 17.148 16.513 19.7113V29.4453H10.415V9.78663H16.2699V12.4683H16.3553C17.1703 10.9237 19.1612 9.29369 22.1313 9.29369C28.3096 9.29369 29.4453 13.3621 29.4453 18.6465V29.4453H29.4388Z" fill="var(--fill-0, #ECECEC)"/>
</g>
<defs>
<clipPath id="clip0_0_8">
<rect width="29.4453" height="33.6518" fill="white"/>
</clipPath>
</defs>
</svg>
