<svg preserveAspectRatio="none" width="100%" height="100%" overflow="visible" style="display: block;" viewBox="0 0 32.7333 32.7333" fill="none" xmlns="http://www.w3.org/2000/svg">
<g id="material-icon-theme:pipeline">
<path id="Vector" d="M20.4583 24.5499H12.1727C12.0401 23.9095 11.7859 23.3004 11.4239 22.7558L22.7558 11.4239C23.6693 12.0263 24.7521 12.3196 25.8449 12.2606C26.9376 12.2017 27.9825 11.7936 28.826 11.0964C29.6695 10.3992 30.2669 9.44975 30.5305 8.38766C30.7941 7.32556 30.7098 6.20692 30.2902 5.19628C29.8705 4.18565 29.1376 3.33637 28.1992 2.77338C27.2608 2.21039 26.1665 1.96342 25.0773 2.06878C23.9881 2.17415 22.9614 2.6263 22.1484 3.35871C21.3353 4.09113 20.7787 5.06515 20.5606 6.13749H12.1706C11.9171 4.89562 11.2116 3.79212 10.1907 3.04092C9.16982 2.28972 7.90639 1.94434 6.64534 2.07173C5.38429 2.19912 4.21546 2.79021 3.36545 3.73041C2.51545 4.67061 2.04483 5.89293 2.04483 7.1604C2.04483 8.42787 2.51545 9.65019 3.36545 10.5904C4.21546 11.5306 5.38429 12.1217 6.64534 12.2491C7.90639 12.3765 9.16982 12.0311 10.1907 11.2799C11.2116 10.5287 11.9171 9.42518 12.1706 8.18332H20.5606C20.6925 8.82361 20.946 9.43266 21.3073 9.97751L9.97853 21.3094C9.06505 20.7068 7.9823 20.4133 6.88955 20.472C5.7968 20.5307 4.75175 20.9386 3.90813 21.6357C3.06451 22.3327 2.46686 23.2821 2.2031 24.3441C1.93934 25.4062 2.0234 26.5249 2.4429 27.5356C2.86241 28.5463 3.59522 29.3957 4.53352 29.9589C5.47183 30.522 6.5661 30.7692 7.65536 30.664C8.74462 30.5587 9.77135 30.1067 10.5845 29.3744C11.3977 28.6421 11.9544 27.6681 12.1727 26.5958H20.4583V30.6874H30.6874V20.4583H20.4583V24.5499ZM7.1604 10.2291C6.55346 10.2291 5.96015 10.0492 5.4555 9.71197C4.95085 9.37477 4.55752 8.8955 4.32525 8.33476C4.09299 7.77402 4.03222 7.157 4.15062 6.56172C4.26903 5.96644 4.5613 5.41964 4.99047 4.99047C5.41964 4.5613 5.96644 4.26903 6.56172 4.15062C7.157 4.03222 7.77402 4.09299 8.33476 4.32525C8.8955 4.55752 9.37477 4.95085 9.71197 5.4555C10.0492 5.96015 10.2291 6.55346 10.2291 7.1604C10.2283 7.97403 9.90476 8.75411 9.32943 9.32943C8.75411 9.90476 7.97403 10.2283 7.1604 10.2291ZM25.5729 4.09166C26.1798 4.09166 26.7731 4.27164 27.2778 4.60883C27.7824 4.94603 28.1757 5.4253 28.408 5.98604C28.6403 6.54678 28.7011 7.16381 28.5826 7.75908C28.4642 8.35436 28.172 8.90116 27.7428 9.33033C27.3136 9.7595 26.7668 10.0518 26.1715 10.1702C25.5763 10.2886 24.9592 10.2278 24.3985 9.99555C23.8378 9.76329 23.3585 9.36996 23.0213 8.8653C22.6841 8.36065 22.5041 7.76734 22.5041 7.1604C22.5049 6.34677 22.8285 5.56669 23.4038 4.99137C23.9792 4.41604 24.7592 4.09247 25.5729 4.09166ZM7.1604 28.6416C6.55346 28.6416 5.96015 28.4616 5.4555 28.1244C4.95085 27.7872 4.55752 27.308 4.32525 26.7472C4.09299 26.1865 4.03222 25.5695 4.15062 24.9742C4.26903 24.3789 4.5613 23.8321 4.99047 23.4029C5.41964 22.9738 5.96644 22.6815 6.56172 22.5631C7.157 22.4447 7.77402 22.5054 8.33476 22.7377C8.8955 22.97 9.37477 23.3633 9.71197 23.868C10.0492 24.3726 10.2291 24.9659 10.2291 25.5729C10.2283 26.3865 9.90476 27.1666 9.32943 27.7419C8.75411 28.3172 7.97403 28.6408 7.1604 28.6416ZM22.5041 22.5041H28.6416V28.6416H22.5041V22.5041Z" fill="var(--fill-0, #DBDBDB)"/>
</g>
</svg>
