<svg preserveAspectRatio="none" width="100%" height="100%" overflow="visible" style="display: block;" viewBox="0 0 35.0714 35.0714" fill="none" xmlns="http://www.w3.org/2000/svg">
<g id="solar:database-bold-duotone">
<path id="Vector" d="M17.5357 14.6131C23.9917 14.6131 29.2261 11.9973 29.2261 8.76784C29.2261 5.53835 23.9917 2.92261 17.5357 2.92261C11.0796 2.92261 5.84523 5.53835 5.84523 8.76784C5.84523 11.9973 11.0796 14.6131 17.5357 14.6131Z" fill="var(--fill-0, #DBDBDB)"/>
<path id="Vector_2" opacity="0.5" d="M5.84523 17.5357V26.3035C5.84523 29.533 11.0796 32.1487 17.5357 32.1487C23.9917 32.1487 29.2261 29.533 29.2261 26.3035V17.5357C29.2261 20.7652 23.9917 23.3809 17.5357 23.3809C11.0796 23.3809 5.84523 20.7652 5.84523 17.5357Z" fill="var(--fill-0, #DBDBDB)"/>
<path id="Vector_3" opacity="0.7" d="M5.84523 8.76784V17.5357C5.84523 20.7652 11.0796 23.3809 17.5357 23.3809C23.9917 23.3809 29.2261 20.7652 29.2261 17.5357V8.76784C29.2261 11.9973 23.9917 14.6131 17.5357 14.6131C11.0796 14.6131 5.84523 11.9973 5.84523 8.76784Z" fill="var(--fill-0, #DBDBDB)"/>
</g>
</svg>
