<svg width="34" height="36" viewBox="0 0 34 36" fill="none" xmlns="http://www.w3.org/2000/svg">
<mask id="path-1-outside-1_294_75" maskUnits="userSpaceOnUse" x="-0.954102" y="-0.772461" width="35" height="36" fill="black">
<rect fill="white" x="-0.954102" y="-0.772461" width="35" height="36"/>
<path d="M19.0176 1H21.2148C27.2044 1 30.777 3.02637 31.9326 7.0791C32.3232 8.41374 32.5186 9.94368 32.5186 11.6689V34.2275H19.0176V1ZM1 11.6689C1 8.07194 1.82194 5.43522 3.46582 3.75879C5.27246 1.9196 8.21842 1 12.3037 1H14.501V34.2275H1V11.6689Z"/>
</mask>
<path d="M19.0176 1H21.2148C27.2044 1 30.777 3.02637 31.9326 7.0791C32.3232 8.41374 32.5186 9.94368 32.5186 11.6689V34.2275H19.0176V1ZM1 11.6689C1 8.07194 1.82194 5.43522 3.46582 3.75879C5.27246 1.9196 8.21842 1 12.3037 1H14.501V34.2275H1V11.6689Z" fill="url(#paint0_linear_294_75)"/>
<path d="M19.0176 1V0H18.0176V1H19.0176ZM31.9326 7.0791L30.9709 7.35332L30.9729 7.36L31.9326 7.0791ZM32.5186 34.2275V35.2275H33.5186V34.2275H32.5186ZM19.0176 34.2275H18.0176V35.2275H19.0176V34.2275ZM3.46582 3.75879L2.75243 3.05802L2.75182 3.05865L3.46582 3.75879ZM14.501 1H15.501V0H14.501V1ZM14.501 34.2275V35.2275H15.501V34.2275H14.501ZM1 34.2275H0V35.2275H1V34.2275ZM19.0176 1V2H21.2148V1V0H19.0176V1ZM21.2148 1V2C24.1108 2 26.3107 2.49205 27.8931 3.3896C29.4447 4.26964 30.463 5.57188 30.9709 7.35331L31.9326 7.0791L32.8943 6.80489C32.2466 4.53358 30.9009 2.79628 28.8798 1.64995C26.8897 0.521133 24.3085 0 21.2148 0V1ZM31.9326 7.0791L30.9729 7.36C31.3313 8.58456 31.5186 10.0169 31.5186 11.6689H32.5186H33.5186C33.5186 9.87046 33.3152 8.24291 32.8924 6.7982L31.9326 7.0791ZM32.5186 11.6689H31.5186V34.2275H32.5186H33.5186V11.6689H32.5186ZM32.5186 34.2275V33.2275H19.0176V34.2275V35.2275H32.5186V34.2275ZM19.0176 34.2275H20.0176V1H19.0176H18.0176V34.2275H19.0176ZM1 11.6689H2C2 8.19769 2.79644 5.86971 4.17983 4.45893L3.46582 3.75879L2.75182 3.05865C0.847436 5.00074 0 7.94619 0 11.6689H1ZM3.46582 3.75879L4.17921 4.45955C5.71293 2.8982 8.33476 2 12.3037 2V1V0C8.10209 0 4.83199 0.940987 2.75243 3.05802L3.46582 3.75879ZM12.3037 1V2H14.501V1V0H12.3037V1ZM14.501 1H13.501V34.2275H14.501H15.501V1H14.501ZM14.501 34.2275V33.2275H1V34.2275V35.2275H14.501V34.2275ZM1 34.2275H2V11.6689H1H0V34.2275H1Z" fill="url(#paint1_linear_294_75)" mask="url(#path-1-outside-1_294_75)"/>
<defs>
<linearGradient id="paint0_linear_294_75" x1="17.0459" y1="-14.7725" x2="17.0459" y2="48.2275" gradientUnits="userSpaceOnUse">
<stop stop-color="#5E00FF"/>
<stop offset="1" stop-color="#B300FF"/>
</linearGradient>
<linearGradient id="paint1_linear_294_75" x1="17.0459" y1="-14.7725" x2="17.0459" y2="48.2275" gradientUnits="userSpaceOnUse">
<stop stop-color="white"/>
<stop offset="1" stop-color="#8D04DC"/>
</linearGradient>
</defs>
</svg>
