<svg xmlns="http://www.w3.org/2000/svg" width="26" height="38" viewBox="0 0 26 38" fill="none"><path fill-rule="evenodd" clip-rule="evenodd" d="M1.67339 7.55943L1.62344 7.66192L1.47358 7.96939L1.3487 8.25125L1.27378 8.4306L1.22382 8.55872L1.17387 8.68683L1.09894 8.89181L0.999039 9.17367L0.949087 9.3274L0.874159 9.55801L0.74928 9.99359L0.674352 10.2754L0.574448 10.6854L0.524496 10.916L0.474544 11.1466L0.37464 11.6591L0.324688 11.9409L0.24976 12.3765L0.199808 12.7096L0.149856 13.094L0.0999039 13.5295L0.074928 13.7858L0.049952 14.0932L0.024976 14.452L0 14.99V16.1431L0.024976 16.7324L0.049952 17.0911L0.074928 17.373L0.0999039 17.6292L0.12488 17.8598L0.174832 18.2441L0.199808 18.4235L0.274736 18.9103L0.349664 19.3203L0.37464 19.4484L0.449568 19.8071L0.524496 20.1402L0.599424 20.3452L0.6244 20.5502L0.699328 20.832L0.74928 21.0114L0.799231 21.1907L0.899135 21.5238L1.07397 22.0619L1.27378 22.5744L1.3487 22.7537L1.44861 22.9587L1.62344 23.3174L1.72334 23.4968L1.79827 23.6249L1.8732 23.753L1.9731 23.9068L2.12296 24.1374L2.34774 24.4448L2.47262 24.5986L2.62248 24.7779L3.14697 25.316L3.34678 25.4954L3.47166 25.5979L3.59654 25.7004L3.69645 25.7772L3.79635 25.8541L4.09606 26.0591L4.29587 26.1872L4.52065 26.3153L4.82036 26.469L4.9952 26.5459L5.12008 26.5972L5.41979 26.6996L5.59462 26.7509L5.8194 26.8021L5.96926 26.8278L6.14409 26.8534L6.61864 26.879L6.99328 26.8534L7.16811 26.8278L7.29299 26.8021L7.41787 26.7765L7.51777 26.7509L7.61768 26.7253L8.06724 26.5715L8.24207 26.4947L8.56676 26.3153H8.61671L8.66667 26.2897L9.39097 27.0327L9.51585 27.1865L9.66571 27.3915L9.74063 27.4939L9.86551 27.6989L9.99039 27.9295L10.0154 27.9808L10.0403 28.032L10.1402 28.2626L10.1902 28.3907L10.2402 28.5189L10.3401 28.8263V28.9032L10.39 29.0313V28.9544L10.4649 28.7495L10.5149 28.4932L10.5898 28.237L10.6647 27.9808L10.8146 27.4939L11.1892 26.3922L11.414 25.6747L11.5139 25.3416L11.5889 25.0854L11.6388 24.906L11.6888 24.7267L11.7637 24.4448L11.9135 23.8299L12.0134 23.3431V23.2149L12.0384 23.0868L12.0884 22.9587L12.1134 23.01L12.1383 23.0356L12.1633 23.1637L12.3631 23.7786L12.438 23.8811L12.5879 23.8043L12.6628 23.7786L12.7877 23.753H13.1873L13.3122 23.7786L13.3871 23.8043L13.5869 23.8555L13.6119 23.7786L13.6619 23.6249L13.7618 23.3431V23.2662L13.8866 22.9587L13.9116 23.01L13.9366 23.0356L13.9616 23.1637L14.0115 23.4968L14.0865 23.8043L14.2113 24.3167L14.3612 24.8548L14.4361 25.111L14.536 25.4441L14.6859 25.931L15.1604 27.3402L15.3602 27.9808L15.4601 28.3139L15.5101 28.5701L15.585 28.7495V28.8263L15.635 28.9288V29.0057V28.9544L15.6599 28.9288L15.6849 28.7495L15.7349 28.5957L15.8098 28.3651L15.8597 28.237L15.9347 28.0577L16.1095 27.7246L16.3093 27.4171L16.3842 27.3146L16.4841 27.1865L16.609 27.0327L17.1835 26.4178L17.2584 26.3409L17.4083 26.3153H17.4582L17.8329 26.5203L18.0077 26.5972L18.2325 26.674L18.4822 26.7509L18.6071 26.7765L18.732 26.8021L18.8818 26.8278L19.0817 26.8534H19.781L19.9808 26.8278L20.1306 26.8021L20.2555 26.7765L20.3804 26.7509L20.5552 26.6996L20.8549 26.5972L20.9798 26.5459L21.1047 26.4947L21.3794 26.3665L21.7041 26.1872L21.829 26.1103L21.9539 26.0335L22.2536 25.8285L22.5533 25.5979L22.6782 25.4954L22.878 25.316L23.3775 24.8036L23.5524 24.5986L23.6523 24.4705L23.7522 24.3424L23.927 24.0861L24.0768 23.8555L24.3016 23.4712L24.4015 23.2662L24.6263 22.805L24.7012 22.6256L24.8511 22.2413L24.976 21.8826L25.0759 21.5751L25.2257 21.0883L25.2507 20.9089L25.3256 20.7295L25.4505 20.2427L25.4755 20.1402L25.5504 19.8071L25.6004 19.5765L25.7003 19.0641L25.7752 18.6285L25.8002 18.4491L25.8501 18.0904L25.8751 17.8854L25.9001 17.6548L25.9251 17.4242L25.95 17.1423L25.975 16.758L26 16.2456V14.9644L25.975 14.4263L25.95 14.042L25.9251 13.7601L25.8751 13.2989L25.8501 13.0683L25.7752 12.5302L25.7502 12.3765L25.7253 12.2228L25.6503 11.7872L25.5504 11.2747L25.4755 11.0441L25.4505 10.8135L25.4006 10.711L25.3007 10.1986L25.2507 10.0192L25.2008 9.83986L25.1258 9.58363L25.0509 9.35302L24.926 8.96868L24.8511 8.7637L24.8012 8.63559L24.6763 8.32811L24.5764 8.09751L24.3766 7.66192L24.3516 7.61068L24.2517 7.50818L24.2767 7.55943L24.3016 7.71317L24.3266 7.89253L24.3516 8.07189L24.3766 8.35374V9.07117L24.3516 9.35302L24.3266 9.50676L24.3016 9.6605L24.2517 9.8911L24.2017 10.0705L24.1768 10.1473L24.1518 10.2242L24.0768 10.4292L24.0019 10.5829L23.877 10.8391L23.8021 10.9673L23.6523 11.1979L23.5773 11.3004L23.4774 11.4285L23.1777 11.7616L23.1527 11.7872L22.928 11.9922L22.7531 12.1459L22.6282 12.2484L22.5034 12.3509L22.2036 12.5815L21.9539 12.7609L21.2046 13.2477L20.9798 13.4014L20.6801 13.632L20.6052 13.6577L20.4304 13.7858L20.1806 13.9651L20.0807 14.0676L19.8809 14.1957L19.6811 14.3495L19.2315 14.7082L19.0817 14.8619L18.9318 14.9644L18.757 15.1181L18.5572 15.2975L18.3074 15.5281L17.4332 16.4249L17.2334 16.6555L17.0336 16.8861L16.7589 17.2192L16.634 17.373L16.4592 17.6036L16.1595 18.0135L16.0346 18.1929L15.9347 18.3466L15.7848 18.5772L15.6599 18.7822L15.585 18.9103L15.5101 19.0384L15.3103 19.4228L15.2853 19.474L15.2603 19.5765L15.2104 19.6278L15.0855 19.9096L15.0106 20.089L14.9606 20.2171L14.9107 20.3452L14.8357 20.5502L14.7608 20.7552L14.6609 21.0626L14.4611 21.6776V21.7544L14.3362 22.1132L14.3112 21.6776L14.3362 21.3957L14.3612 21.1907L14.3862 20.9858L14.4111 20.8064L14.511 20.1915L14.586 19.9352V19.7815L14.536 19.7302L14.4861 19.7046L14.4111 19.679L14.2113 19.6534L13.9866 19.5765L13.6369 19.3972L13.562 19.3459L13.487 19.2947L13.3871 19.2178L13.2373 19.0641L13.0874 18.9359L13.0375 18.9103H12.9625L12.8876 18.9616L12.6878 19.1665L12.5629 19.269L12.3381 19.4228L12.0384 19.5765L11.8136 19.6534L11.7137 19.679L11.5889 19.7046H11.464L11.414 19.7302V19.884L11.5139 20.294L11.5639 20.5758L11.6138 20.9089L11.6388 21.0883L11.6638 21.2932L11.6888 21.5495L11.7137 21.9594L11.6888 22.1644L11.6388 22.1132L11.6138 22.0363L11.5639 21.8826L11.389 21.2164L11.2142 20.6783L11.1143 20.3964L11.0394 20.2683L11.0144 20.1402L10.9145 19.9096L10.7896 19.6278L10.7397 19.5765V19.5253L10.5898 19.2434L10.4649 19.0128L10.39 18.8847L10.3151 18.7566L10.1902 18.5516L10.0154 18.2698L9.96542 18.1929L9.79059 17.9367L9.66571 17.7573L9.44092 17.4498L9.26609 17.2192L8.86647 16.7324L8.64169 16.4762L8.36695 16.1687L8.16715 15.9637L8.09222 15.8868L8.04227 15.8356L8.01729 15.81L7.56772 15.3744L7.34294 15.1694L7.11816 14.9644L6.94332 14.8107L6.79347 14.6826L6.64361 14.5544L6.51873 14.4776L6.39385 14.3495L6.19404 14.1957L5.89433 13.9651L5.64457 13.7858L5.41979 13.632L5.34486 13.5808L5.04515 13.4014L4.97022 13.3246L4.62056 13.1196L3.64649 12.4534L3.24688 12.1459L3.122 12.0434L2.87224 11.8128L2.82229 11.7616L2.52257 11.4285L2.42267 11.3004L2.34774 11.1979L2.19789 10.9673L2.12296 10.8391L2.04803 10.6854L1.92315 10.4292L1.8732 10.3011L1.79827 10.0705L1.74832 9.8911L1.72334 9.78861L1.69837 9.6605L1.67339 9.53238L1.64841 9.35302L1.62344 9.12242V8.35374L1.64841 8.02064L1.67339 7.73879L1.72334 7.50818L1.67339 7.55943ZM13.4621 1L13.3871 1.02562L13.3372 1.05125L13.3122 1.10249V7.76441L13.3372 8.22562L13.3622 8.5331L13.3871 8.78932L13.4121 8.99431L13.4371 9.19929L13.4621 9.35302L13.537 9.6605L13.6369 9.96797L13.7118 10.1217L13.8367 10.3779L13.9866 10.6085L14.0865 10.7367L14.511 11.1722L14.6359 11.2747L14.7358 11.3516L14.8357 11.4285L14.9107 11.4797L14.9856 11.531L15.1105 11.6078L15.2354 11.6847L15.5351 11.8384L15.7099 11.9153L15.9097 11.9922L15.9846 12.0178L16.3343 12.1203L16.5591 12.1715L16.7089 12.1972L16.8838 12.2228H17.5831L17.7579 12.1972L17.9078 12.1715L18.0077 12.1459L18.1575 12.0947L18.3823 12.0178L18.5322 11.9409L18.7819 11.8128L18.8569 11.7616L18.9318 11.7103L19.1066 11.5822L19.2565 11.4541L19.5562 11.1722L19.6061 11.0954L19.6311 11.0698L19.8809 10.8391L19.9059 10.8904L19.8559 10.9416L19.8309 11.0185L19.731 11.1722L19.5812 11.4028L19.4563 11.5822L19.3564 11.7103L19.1566 11.9665L18.9568 12.1715L18.732 12.4278L18.6071 12.6071L18.4323 12.7865L18.3074 12.9402L18.1825 13.094L17.8578 13.5295L17.7829 13.632L17.5831 13.9139L17.3084 14.3238L17.2584 14.4007L17.0836 14.6826L16.8838 15.0157L16.7839 15.195L16.684 15.3744L16.5341 15.6562L16.1345 16.4762L16.0096 16.758L15.9097 16.9886L15.8597 17.1167L15.8098 17.2448L15.7349 17.4498L15.7099 17.5779L15.6849 17.6548L15.6599 17.706L15.7099 17.6292L15.8098 17.3986L15.9846 17.0911L16.0596 16.963L16.1844 16.758L16.4841 16.2968L16.659 16.0406L16.8588 15.7587L16.9337 15.6562L17.0086 15.5537L17.1835 15.3231L17.2834 15.195L17.3833 15.0669L17.5082 14.9132L17.658 14.7338L17.8329 14.5288L18.1575 14.1701L18.707 13.6064L18.732 13.5808L19.0817 13.2477L19.1066 13.2221L19.3064 13.0427L19.4813 12.889L19.6561 12.7352L19.806 12.6071L19.9558 12.479L20.4054 12.1459L20.5552 12.0178L20.83 11.7359L20.9549 11.5822L21.0298 11.4797L21.0797 11.4028L21.1297 11.326L21.2046 11.1979L21.3045 11.0185L21.3295 10.9673L21.4044 10.7879L21.4544 10.6598L21.5043 10.5317L21.6042 10.2242L21.6792 9.96797L21.7541 9.68612L21.829 9.35302L21.879 9.07117L21.9039 8.89181L21.9539 8.50747L21.9789 8.25125L22.0038 7.94377V6.76512L21.9789 6.48327L21.9539 6.27829L21.9289 6.12456L21.9039 5.97082L21.879 5.8427L21.829 5.6121L21.804 5.50961L21.7541 5.33025L21.6792 5.07402L21.6542 4.99715L21.6292 4.92028L21.5543 4.7153L21.3794 4.35658L21.3045 4.22847L21.2296 4.12598L21.0797 3.94662L21.0298 3.89537L20.8799 3.79288L20.755 3.66477L20.4553 3.43416L20.2805 3.30605L20.1057 3.17794L20.0307 3.15231L19.9558 3.07544L19.6811 2.89609L19.4813 2.76797L19.3564 2.6911L19.1816 2.58861L19.0067 2.48612L18.757 2.35801L18.2574 2.10178L18.0826 2.02491L17.9078 1.94804L17.4083 1.74306L17.1835 1.66619L16.8088 1.53808L16.634 1.48683L16.4592 1.43559L16.1844 1.35872L15.9597 1.30747L15.7349 1.25623L15.61 1.2306L15.3353 1.17936L15.1854 1.15374L15.0355 1.12811L14.8357 1.10249L14.6359 1.07687L14.3862 1.05125L14.1114 1.02562L13.6619 1H13.4621ZM12.3132 1L11.8886 1.02562L11.6138 1.05125L11.389 1.07687L11.2142 1.10249L11.0394 1.12811L10.8895 1.15374L10.7397 1.17936L10.2402 1.28185L10.0154 1.3331L9.81556 1.38434L9.51585 1.46121L9.34102 1.53808L9.16619 1.5637L8.9414 1.64057L8.56676 1.76868L8.16715 1.92242L7.86743 2.05053L7.64265 2.15302L7.39289 2.28114L6.94332 2.51174L6.71854 2.63986L6.3439 2.87046L5.99424 3.10107L5.8194 3.22918L5.41979 3.53665L5.29491 3.63915L5.17003 3.74164L5.02017 3.86975L4.84534 4.02349L4.64553 4.22847L4.62056 4.30534L4.57061 4.45907L4.52065 4.63843L4.3708 4.97153L4.29587 5.17651L4.27089 5.25338L4.22094 5.43274L4.17099 5.66335L4.14601 5.79146L4.07109 6.25267L4.04611 6.48327L4.02113 6.79075V7.94377L4.04611 8.25125L4.07109 8.50747L4.09606 8.71246L4.12104 8.89181L4.19597 9.35302L4.22094 9.48114L4.27089 9.71174L4.29587 9.81423L4.34582 9.99359L4.49568 10.4548L4.54563 10.5829L4.64553 10.7879L4.82036 11.1466L4.89529 11.2747L4.94524 11.3516L4.9952 11.4285L5.12008 11.6078L5.24496 11.7616L5.36984 11.9153L5.66955 12.2228L5.84438 12.3765L5.96926 12.479L6.31892 12.7352L6.59366 12.9658L6.74352 13.094L6.91835 13.2477L7.16811 13.4783L8.04227 14.3751L8.26705 14.6313L8.44188 14.8363L8.59174 15.0157L8.71662 15.1694L8.99135 15.5281L9.19116 15.81L9.31604 15.9893L9.44092 16.1687L9.54083 16.3224L9.69068 16.553L9.86551 16.8349L10.1652 17.3473L10.2402 17.5267L10.2901 17.5779V17.6036L10.3401 17.6548L10.3151 17.6036L10.2901 17.5779L10.2651 17.4498L10.2152 17.373L10.1652 17.168L10.1153 17.0399L10.0403 16.8605L9.96542 16.6811L9.71566 16.1431L9.64073 16.0406V15.9893L9.61575 15.9381L9.59078 15.8868L9.36599 15.4512L9.06628 14.9132L8.9414 14.7082L8.81652 14.5032L8.46686 13.9651L8.26705 13.6833L8.19212 13.5808L8.1172 13.4783L7.94236 13.2477L7.84246 13.1196L7.56772 12.7865L7.36792 12.5559L7.14313 12.3253L6.9683 12.1203L6.84342 11.9665L6.74352 11.8384L6.64361 11.7103L6.56868 11.6078L6.49376 11.5053L6.36888 11.326L6.3439 11.2491L6.26897 11.1722L6.14409 10.9673V10.8648L6.4438 11.1722L6.69356 11.4028L6.84342 11.531L6.94332 11.6078L7.04323 11.6847L7.11816 11.7359L7.19308 11.7872L7.36792 11.8897L7.46782 11.9409L7.61768 12.0178L7.74256 12.069L7.96734 12.1459L8.06724 12.1715L8.19212 12.1972L8.36695 12.2228H8.99135L9.24111 12.1972L9.39097 12.1715L9.51585 12.1459L9.64073 12.1203L9.74063 12.0947L9.91547 12.0434L10.2152 11.9409L10.3401 11.8897L10.6148 11.7616L10.6647 11.7359L10.8895 11.6078L11.0144 11.531L11.2392 11.3772L11.3391 11.3004L11.439 11.2235L11.5639 11.121L11.8136 10.8648L11.9635 10.6854L12.0384 10.5829L12.0884 10.5061L12.1383 10.4292L12.2133 10.3011L12.2632 10.1986L12.3381 10.0448L12.438 9.78861L12.488 9.60925L12.513 9.50676L12.5379 9.40427L12.5629 9.27616L12.5879 9.14804L12.6129 8.99431L12.6378 8.78932L12.6628 8.45623L12.6878 7.45694L12.7128 1.28185V1.17936L12.6878 1.07687L12.6378 1.02562L12.5879 1H12.3132ZM1.72334 14.0676L1.77329 14.1189L2.14793 14.5288L2.29779 14.6569L2.39769 14.7338L2.69741 14.9388L2.89721 15.0669L3.2219 15.2463L3.27185 15.2719L3.37176 15.2975L3.42171 15.3488L3.99616 15.605L4.04611 15.6562L4.69548 15.9637L4.97022 16.1174L5.195 16.2456L5.56964 16.4762L5.76945 16.6043L5.99424 16.758L6.36888 17.0142L6.76849 17.3217L7.14313 17.6292L7.31796 17.7829L7.56772 18.0135L8.16715 18.6285L8.39193 18.8847L8.51681 19.0384L8.61671 19.1665L8.71662 19.2947L8.9414 19.6021L9.29107 20.1402L9.49087 20.4733L9.64073 20.7552L9.76561 20.9858L9.86551 21.1907L10.0403 21.5495L10.1902 21.8826L10.2901 22.1132L10.365 22.2925L10.415 22.4206L10.44 22.4975V22.6512L10.3401 22.8562L10.1902 23.0868L10.1153 23.1893L10.0403 23.2918L9.59078 23.753L9.4659 23.8555L9.36599 23.9324L9.29107 23.9836C9.29107 23.9836 9.21495 24.0305 9.16619 24.0605C9.11742 24.0905 9.04131 24.1374 9.04131 24.1374L8.9414 24.1886C8.9414 24.1886 8.85137 24.2383 8.79155 24.2655C8.74354 24.2873 8.66667 24.3167 8.66667 24.3167L8.54179 24.368L8.24207 24.4705L8.06724 24.5217L7.96734 24.5473L7.84246 24.573L7.71758 24.5986L7.56772 24.6242L7.39289 24.6498L7.04323 24.6754H6.8684L6.49376 24.6498L6.31892 24.6242L6.16907 24.5986L5.94428 24.5473L5.76945 24.4961L5.54467 24.4192L5.41979 24.368L5.29491 24.3167L5.14505 24.2399L4.89529 24.1117L4.69548 23.9836L4.62056 23.9324L4.44572 23.8043L4.34582 23.7274L4.19597 23.5993L3.99616 23.4199L3.72142 23.1381L3.52161 22.9075L3.39673 22.7537L3.29683 22.6256L3.2219 22.5231L3.14697 22.4206L3.02209 22.2413L2.97214 22.1644L2.79731 21.8826L2.69741 21.7032L2.54755 21.4214L2.52257 21.3701L2.34774 20.9858L2.27281 20.8064L2.22286 20.6783L2.17291 20.5502L2.07301 20.2683L2.04803 20.1915L2.02305 20.1146L1.94813 19.8584L1.89817 19.679L1.84822 19.4996L1.82325 19.3972L1.74832 19.0641L1.69837 18.8335L1.64841 18.5516L1.59846 18.2185L1.57349 18.0391L1.54851 17.8598L1.52354 17.6292L1.49856 17.3473L1.47358 16.8605V16.2199L1.49856 15.7331L1.52354 15.4512L1.54851 15.2463L1.57349 15.0669L1.59846 14.8875L1.62344 14.7851L1.67339 14.7338L1.74832 14.8107L1.82325 14.9388L1.89817 15.0925L1.9731 15.195L2.14793 15.3744L2.12296 15.2975L2.07301 15.1694L1.9731 14.9644L1.89817 14.7594L1.79827 14.4776L1.72334 14.247V14.1701L1.69837 14.1445L1.72334 14.0676ZM24.2767 14.0676L24.3016 14.1445L24.2767 14.1701V14.247L24.1518 14.6313L24.0019 14.9644L23.927 15.1694L23.902 15.2463L23.877 15.3231L24.0019 15.195L24.0768 15.0925L24.1518 14.9388L24.2517 14.7851L24.3016 14.7338L24.3516 14.7851L24.3766 14.8875L24.4015 14.9644L24.4265 15.0925L24.4515 15.2206L24.4765 15.4256L24.5014 15.6819V17.1167L24.4765 17.5011L24.4515 17.8085L24.4265 18.0135L24.4015 18.2185L24.3766 18.3979L24.3516 18.5516L24.3016 18.8335L24.2767 18.9616L24.2267 19.1922L24.1268 19.6021L24.0768 19.7815L24.0269 19.9609L23.9769 20.0377V20.1146L23.927 20.1915V20.2683L23.7771 20.6783L23.7022 20.8577L23.6273 21.037L23.5024 21.2932L23.2776 21.7544L23.1777 21.9338L23.1028 22.0619L23.0029 22.2157L22.853 22.4463L22.7281 22.6256L22.5533 22.8562L22.4035 23.0356L21.9039 23.548L21.7541 23.6762L21.6292 23.7786L21.5293 23.8555L21.2296 24.0605L21.1047 24.1374L20.805 24.2911L20.6302 24.368L20.5053 24.4192L20.4304 24.4448L20.2555 24.4961L19.9558 24.573L19.8309 24.5986L19.6561 24.6242L19.4313 24.6498H18.707L18.4822 24.6242L18.3074 24.5986L18.1825 24.573L17.9577 24.5217L17.7829 24.4705L17.5581 24.3936L17.4332 24.3424L17.2085 24.2399L17.0586 24.163L16.8838 24.0605L16.5841 23.8555L16.4592 23.753L16.2843 23.5993L15.9846 23.2918L15.8597 23.1381L15.7848 23.0356L15.7349 22.9587L15.6849 22.8819L15.61 22.7281L15.585 22.6256V22.4206L15.61 22.3181L15.635 22.2413L15.6849 22.1132L15.7598 21.9338L15.8597 21.7032L16.1595 21.0883L16.3093 20.8064L16.4092 20.627L16.4841 20.4989L16.5591 20.3708L16.8338 19.9352L17.0086 19.679L17.3084 19.269L17.4332 19.1153L17.5581 18.9616L17.7579 18.7566L17.9577 18.5004L18.4323 18.0135L18.707 17.7573L18.8818 17.6036L19.2565 17.2961L19.3564 17.2192L19.6311 17.0142L19.8809 16.8349L19.9558 16.7836L20.0307 16.7324L20.2305 16.6043L20.6052 16.3737L20.83 16.2456L21.4044 15.9381L22.7281 15.2719L23.0528 15.0925L23.1777 15.0157L23.3026 14.9388L23.6023 14.7338L23.7022 14.6569L23.8021 14.5801L24.2267 14.1189L24.2767 14.0676ZM12.9625 29.1851L12.7627 29.2107L12.6378 29.2363L12.5379 29.2619L12.438 29.2875L12.1383 29.39L12.0134 29.4413L11.8136 29.5438L11.6888 29.6206L11.6138 29.6719L11.5139 29.7488L11.389 29.8512L11.0893 30.1587L10.9894 30.2868L10.9145 30.3893L10.8646 30.4662L10.7896 30.5943L10.7147 30.748L10.5898 31.0043L10.5399 31.1324L10.4649 31.3374L10.44 31.4142L10.415 31.4911L10.3151 31.8242L10.2402 32.1061L10.1652 32.4135L10.0903 32.7466L10.0154 33.131L9.96542 33.4128V33.5665L9.91547 33.7203L9.89049 33.8996L9.81556 34.4377L9.76561 35.027L9.74063 35.0527V35.232L9.71566 35.2577V35.3089L9.76561 35.2577L9.86551 35.2064L9.94044 35.1295L10.0154 35.0783L10.1402 35.0014L10.2901 34.9246L10.5399 34.7964L10.6647 34.7452L10.8646 34.6683L10.9395 34.6427L11.0144 34.6171L11.1892 34.5658L11.489 34.489L11.6138 34.4633L11.7387 34.4377L11.8886 34.4121L12.0634 34.3865L12.2382 34.3609L12.513 34.3352H13.5869L13.8367 34.3609L14.0365 34.3865L14.2113 34.4121L14.586 34.489L14.6859 34.5146L14.7858 34.5402L15.0355 34.6171L15.1105 34.6427L15.1854 34.6683L15.3852 34.7452L15.56 34.8221L15.6599 34.8733L15.8098 34.9758H15.8597L15.9846 35.0527L16.1095 35.1295L16.1844 35.2064L16.2843 35.2577V35.1552L16.2594 35.1295V34.9758L16.2344 34.9502L16.1595 34.2584L16.1095 33.9253L16.0845 33.7715L16.0096 33.3359L15.9097 32.8235L15.8597 32.5929L15.8098 32.3623L15.7848 32.2598L15.635 31.6705L15.56 31.4142L15.5351 31.3374L15.5101 31.2605L15.4601 31.1324L15.4102 31.0043L15.3103 30.7993L15.2104 30.6199L15.1604 30.5431L15.1105 30.4662L15.0355 30.3637L14.9356 30.2356L14.561 29.8512L14.4111 29.7231L14.2363 29.595L14.1614 29.5438L14.0865 29.4925L13.7368 29.3132L13.512 29.2363L13.3871 29.2107L13.2123 29.1851H12.9625ZM12.6878 11.0698L12.3631 11.4028L12.1633 11.5822L12.0384 11.6847L11.9385 11.7616L11.7637 11.8897L11.6888 11.9409L11.6138 11.9922L11.489 12.069L11.3641 12.1459L11.2142 12.2228L10.9645 12.3509L10.7397 12.4534L10.5399 12.5302L10.39 12.5815L10.1652 12.6584L9.99039 12.7096L9.89049 12.7352L9.79059 12.7609L9.66571 12.7865L9.51585 12.8121L9.36599 12.8377L9.14121 12.8633L8.74159 12.889H8.54179L8.51681 12.8633H8.41691L8.44188 12.9146L8.49183 12.9915L8.59174 13.1452L8.89145 13.5808L9.01633 13.7858L9.19116 14.0676L9.24111 14.1957L9.34102 14.3238L9.44092 14.5032L9.54083 14.6826L9.66571 14.9132L9.99039 15.5794L10.1153 15.8612L10.1902 16.0406L10.39 16.553L10.5149 16.8861L10.6647 17.3217L10.7646 17.6292L10.9395 18.1673L11.2392 19.1153V19.1922H11.3391L11.5389 19.1409L11.6638 19.0897L12.0134 18.9103L12.0884 18.8591L12.1633 18.8078L12.3881 18.5772L12.463 18.4747L12.513 18.3722L12.5879 18.2185L12.6129 18.1416L12.6378 18.0648L12.6628 17.9367L12.6878 17.7573V11.0698ZM13.3372 11.0698L13.3122 11.1979L13.3372 12.8377L13.3122 17.0655L13.3372 17.911L13.3622 18.0135L13.3871 18.116L13.4121 18.1929L13.4371 18.2698L13.512 18.4235L13.562 18.5004L13.6119 18.5772L13.8367 18.8078L13.9116 18.8591L13.9866 18.9103L14.1114 18.9872L14.1614 19.0128L14.2113 19.0384L14.3362 19.0897L14.4611 19.1409L14.536 19.1665L14.611 19.1922L14.7608 19.1665L14.7858 19.0897L14.8357 18.9359L14.9107 18.6028L15.0855 18.0391L15.1354 17.9623V17.8854L15.3602 17.2192L15.585 16.6043L15.635 16.4762L15.6849 16.348L15.8098 16.0406L15.9347 15.7587L16.0596 15.4769L16.3593 14.8619L16.5091 14.5801L16.609 14.4007L16.8338 14.0164L17.0586 13.6577L17.2584 13.3502L17.4832 13.0171L17.5581 12.9402L17.5831 12.889H17.2834L17.2584 12.8633H16.9337L16.7089 12.8377L16.4092 12.7865L16.2594 12.7609L15.8597 12.6584L15.61 12.5815L15.4102 12.5046L15.2853 12.4534L15.1604 12.4021L14.6609 12.1459L14.536 12.069L14.2363 11.8641L14.0615 11.7359L13.9366 11.6335L13.7867 11.5053L13.562 11.3004L13.3372 11.0698ZM17.7329 26.9303L17.658 26.9815L17.5581 27.0584L17.0836 27.5452L16.9587 27.6989L16.8338 27.8783L16.7839 27.9552L16.7339 28.032L16.659 28.1601L16.4841 28.5189L16.4342 28.647L16.3842 28.7751L16.3593 28.852L16.2843 29.1082L16.2594 29.2107L16.2344 29.3388L16.2094 29.4925L16.1844 29.6719L16.1595 29.9537V30.5431L16.1844 30.8762L16.2094 31.0811L16.2344 31.2605L16.2843 31.5936L16.3093 31.7473L16.3593 32.0292L16.609 33.2078L16.659 33.4897L16.7339 33.9509L16.7589 34.1302L16.7839 34.3096V34.5146L16.8088 34.5402V34.6171V34.5146L16.8588 34.3865V34.284L16.9337 33.9765L17.0086 33.7203L17.1085 33.4128L17.1835 33.2078L17.3583 32.8235L17.4083 32.721L17.4832 32.5673L17.708 32.1317L17.8079 31.9523L17.9078 31.773L17.9827 31.6448L18.1825 31.3117L18.2325 31.2349L18.5072 30.8249L18.707 30.5431L18.8818 30.3125L19.0067 30.1587L19.1316 30.005L19.2815 29.8256L19.5312 29.5438L20.0307 29.0313L20.2805 28.8007L20.4553 28.647L20.6052 28.5189L20.7301 28.4164L20.8549 28.3139L21.1547 28.0833L21.3295 27.9552L21.4294 27.9039L21.4793 27.8527V27.7502L21.4544 27.6989L21.4294 27.6477L21.1297 27.0584L21.0797 27.0071H20.9049L20.7301 27.084L20.3305 27.1865L20.1806 27.2121L20.0307 27.2377L19.806 27.2633H19.2065L18.9568 27.2377L18.8069 27.2121L18.682 27.1865L18.5572 27.1609L18.3823 27.1096L18.2325 27.0584L18.0826 26.9815L18.0077 26.9559L17.9328 26.9303H17.7329ZM8.1172 26.9046L8.04227 26.9303L7.96734 26.9559L7.76753 27.0584L7.6926 27.084L7.61768 27.1096L7.44284 27.1609L7.31796 27.1865L7.19308 27.2121L7.04323 27.2377L6.81844 27.2633H6.16907L5.94428 27.2377L5.76945 27.2121L5.6196 27.1865L5.51969 27.1609L5.44476 27.1352L5.36984 27.1096L5.29491 27.0584L5.21998 27.0327L5.14505 27.0071H4.94524L4.89529 27.0327L4.84534 27.084L4.79539 27.1609L4.72046 27.3146L4.69548 27.4427L4.52065 27.827L4.62056 27.9295L4.77041 28.0064L4.84534 28.0577L5.02017 28.1858L5.12008 28.2626L5.34486 28.442L5.49472 28.5701L5.7195 28.7751L6.39385 29.4669L6.59366 29.6975L6.76849 29.9025L6.94332 30.1075L7.34294 30.6199L7.64265 31.0299L7.86743 31.363L7.91739 31.4399L8.09222 31.7217L8.16715 31.8498L8.29203 32.0804L8.41691 32.311L8.59174 32.6698L8.69164 32.9004L8.76657 33.0797L8.81652 33.2078L8.89145 33.4128L9.04131 33.874L9.09126 34.0534L9.19116 34.5402L9.21614 34.5658V34.6171V34.4633L9.24111 34.4377V34.2584L9.26609 34.079L9.29107 33.9253L9.34102 33.6434L9.39097 33.3616L9.51585 32.7979L9.61575 32.2342L9.71566 31.6192L9.79059 31.0811L9.81556 30.8762L9.84054 30.6199V29.8256L9.81556 29.595L9.79059 29.4157L9.74063 29.1851L9.69068 29.0057L9.59078 28.6982L9.51585 28.5189L9.36599 28.2114L9.24111 28.0064L9.19116 27.9295L9.14121 27.8527L9.06628 27.7502L8.96638 27.6221L8.81652 27.4427L8.54179 27.1609L8.36695 27.0071L8.26705 26.9303L8.2171 26.9046H8.1172ZM4.3708 28.1089L4.29587 28.1345L4.24592 28.1858L4.19597 28.2626L4.04611 28.5445L3.97118 28.647L3.82133 28.8007L3.77137 28.8776L3.72142 28.9544L3.69645 29.0569V29.1851L3.72142 29.2619L3.7464 29.3388L3.77137 29.39L3.79635 29.4413L3.89625 29.6206L3.97118 29.7488L4.14601 30.005L4.19597 30.1331L4.34582 30.3637L4.4707 30.5687L4.59558 30.7224L4.67051 30.8762L4.79539 31.0555L5.17003 31.5936L5.39481 31.9011L5.66955 32.2598L5.76945 32.3879L5.86936 32.516L5.99424 32.6698L6.14409 32.8491L6.46878 33.2335L6.66859 33.4641L7.0682 33.8996L7.16811 33.9765L7.71758 34.5658L8.14217 34.9758L8.44188 35.2577L8.61671 35.4114L8.76657 35.5395L8.86647 35.6164L8.99135 35.7189L9.01633 35.6164L8.99135 35.5139L8.86647 35.0014L8.74159 34.5658L8.56676 34.0278L8.41691 33.6178L8.29203 33.3103L8.19212 33.0797L8.09222 32.8491L7.84246 32.3367L7.6926 32.0548L7.5927 31.8754L7.49279 31.6961L7.41787 31.568L7.24304 31.2861L7.14313 31.1324L6.99328 30.9018L6.8684 30.7224L6.71854 30.5174L6.46878 30.21L6.41883 30.1075L6.29395 29.9537L6.14409 29.7744L5.96926 29.5694L5.76945 29.3388L5.0951 28.647L4.92027 28.4932L4.69548 28.3139L4.59558 28.237L4.44572 28.1345L4.3708 28.1089ZM21.5043 28.1601L21.4544 28.1858L21.3794 28.237L21.2795 28.3139L21.0797 28.4932L20.805 28.7495L20.78 28.7751V28.8007L20.755 28.8263L20.2305 29.3388L20.0058 29.595L19.8309 29.8L19.7061 29.9537L19.5812 30.1075L19.4063 30.3381L19.1816 30.6456L19.0567 30.8249L18.9568 30.9786L18.8069 31.2093L18.6321 31.4911L18.5572 31.6192L18.4822 31.7473L18.3823 31.9267L18.2824 32.1061L18.1575 32.3623L17.8578 32.9772L17.7579 33.2078L17.6081 33.5665L17.4332 34.0278L17.3583 34.2327L17.2584 34.5402L17.1585 34.9246L17.1085 35.1552L17.0336 35.5395L17.0086 35.6932L17.1085 35.6164L17.2334 35.5395L17.3583 35.437L17.5082 35.3089L17.708 35.1295L18.0077 34.8477L18.6071 34.2071L18.6321 34.1815L18.757 34.079L19.1316 33.669L19.3814 33.3872L19.5812 33.1566L19.8809 32.7979L20.0307 32.6185L20.3554 32.2085L20.4553 32.0804L20.6302 31.8498L20.6801 31.7473L20.78 31.6448L20.8549 31.5424L21.0548 31.2605L21.1796 31.0811L21.3045 30.9018L21.804 30.1331L21.9789 29.8512L22.0538 29.7231L22.1287 29.595L22.1537 29.5438L22.1787 29.4925L22.2286 29.3644L22.2536 29.2619V29.0057L22.2286 28.9288L22.2036 28.852L22.1787 28.8007L22.1037 28.6726L21.9789 28.5445L21.9039 28.4164L21.6792 28.1858L21.6292 28.1601H21.5043ZM12.6129 34.6171L12.3132 34.6427L12.0634 34.6683L11.8886 34.694L11.7387 34.7196L11.464 34.7708L11.0644 34.8733L10.8146 34.9502L10.7397 34.9758L10.6148 35.027L10.4899 35.0783L10.2651 35.1808L10.1153 35.2577L9.99039 35.3345L9.86551 35.4114L9.79059 35.4626L9.69068 35.5651L9.66571 35.6164L9.64073 35.6676L9.61575 35.7957V35.847L9.64073 35.9751L9.66571 36.0263L9.69068 36.0776L9.74063 36.1544L9.81556 36.2057L9.89049 36.2569L10.2152 36.4107L10.39 36.4875L10.5149 36.5388L10.7147 36.6157L11.0144 36.7182L11.1892 36.7694L11.489 36.8463L11.6138 36.8719L11.7387 36.8975L11.8886 36.9231L12.0634 36.9488L12.2632 36.9744L12.6628 37H13.2872L13.6868 36.9744L13.9116 36.9488L14.0865 36.9231L14.2363 36.8975L14.3862 36.8719L14.611 36.8206L14.7109 36.795L14.8108 36.7694L14.9856 36.7182L15.4352 36.5644L15.635 36.4875L15.8098 36.4107L16.1844 36.2057H16.2344L16.2843 36.1801L16.3093 36.1544L16.3343 36.1032L16.3593 36.0263V35.7189L16.3343 35.642L16.3093 35.5907L16.2843 35.5395L16.1844 35.437L16.0845 35.3601L15.9097 35.2577L15.8597 35.232L15.8098 35.2064L15.635 35.1295L15.5101 35.0783L15.3852 35.027L14.9356 34.8733L14.7358 34.8221L14.4361 34.7452L14.3112 34.7196L14.1614 34.694L13.9866 34.6683L13.7867 34.6427L13.487 34.6171H12.6129ZM12.7378 24.4961L12.6129 24.5217L12.513 24.5473L12.438 24.573L12.3881 24.5986L12.3381 24.6242L12.3132 24.6498L12.2882 24.7011L12.2133 24.9317L12.0884 25.3673L11.7387 26.6484L11.5639 27.1609L11.439 27.6733L11.3641 27.9295L11.1892 28.442L11.1143 28.7751L11.0394 29.0313L11.0144 29.1082L10.9894 29.1851L10.9645 29.2363L11.0144 29.2107L11.1143 29.1082L11.2142 29.0313L11.439 28.8776L11.5639 28.8007L11.7637 28.6982L11.9385 28.6214L12.2382 28.5189L12.3381 28.4932L12.463 28.4676L12.5879 28.442L12.7877 28.4164H13.2373L13.4371 28.442L13.5869 28.4676L13.6868 28.4932L13.7867 28.5189L14.0865 28.6214L14.2113 28.6726L14.3612 28.7495L14.536 28.852L14.7608 29.0057L14.8607 29.0826L14.9856 29.2107H15.0106L15.0605 29.2619V29.1594L15.0106 29.0057L14.9107 28.7495L14.8357 28.4164L14.4861 27.3402L14.4111 27.0071L14.2863 26.674L14.2113 26.3409L14.0865 26.0078L14.0115 25.6747L13.8866 25.3416L13.8117 25.0085L13.7368 24.7779L13.7118 24.7267L13.6868 24.6754L13.6619 24.6498H13.6369L13.5869 24.5986L13.537 24.573L13.4621 24.5473L13.3622 24.5217L13.2373 24.4961H12.7378ZM3.57157 5.15089L3.44669 5.30463L3.32181 5.45836L3.19693 5.63772L3.07205 5.81708L3.02209 5.89395L2.94717 6.02206L2.87224 6.15018L2.62248 6.66263L2.57253 6.79075L2.52257 6.91886L2.44765 7.14947L2.39769 7.32883L2.37272 7.43132L2.34774 7.53381L2.32277 7.66192L2.29779 7.79004L2.27281 7.99502L2.24784 8.25125V9.01993L2.27281 9.25053L2.29779 9.40427L2.32277 9.53238L2.34774 9.6605L2.37272 9.76299L2.47262 10.0705L2.52257 10.1986L2.5975 10.3779L2.62248 10.4292L2.74736 10.6598L2.79731 10.7367L2.84726 10.8135L2.92219 10.916L2.99712 11.0185L3.122 11.1722L3.34678 11.4028L3.57157 11.6078L3.69645 11.7103L4.02113 11.9665L4.12104 12.0434L4.29587 12.1715L4.54563 12.3253L4.64553 12.4021L4.74544 12.5046L4.82036 12.5559H4.84534L4.89529 12.5815L4.84534 12.5302L4.79539 12.4278L4.64553 12.2228L4.52065 12.0178L4.44572 11.8897L4.32085 11.6591L3.99616 10.9929L3.92123 10.8135L3.77137 10.4292L3.72142 10.2754L3.64649 10.0448L3.57157 9.78861L3.49664 9.48114L3.42171 9.0968L3.39673 8.94306L3.37176 8.78932L3.34678 8.58434L3.32181 8.27687V7.22633L3.34678 6.91886L3.37176 6.71388L3.39673 6.53452L3.42171 6.38078L3.47166 6.09893L3.52161 5.86833L3.62152 5.48399L3.67147 5.30463L3.79635 4.97153L3.82133 4.89466L3.57157 5.15089ZM22.1787 4.86904L22.2036 4.92028L22.2536 4.99715L22.4035 5.40712L22.4784 5.66335L22.5533 5.97082L22.5783 6.09893L22.6033 6.22705L22.6282 6.38078L22.6532 6.56014L22.6782 6.76512L22.7032 7.04698V8.12313L22.6782 8.40498L22.6532 8.63559L22.6282 8.84057L22.6033 8.99431L22.5783 9.14804L22.5533 9.27616L22.5283 9.40427L22.4784 9.63488L22.4534 9.73737L22.4284 9.83986L22.3785 10.0192L22.3285 10.1986L22.2286 10.5061L22.1537 10.711L22.1037 10.8391L22.0538 10.9673L21.9289 11.2491L21.829 11.4541L21.6792 11.7359L21.6042 11.8641L21.5043 12.0178L21.3545 12.2484L21.2795 12.3509L21.2046 12.4534L21.0548 12.6071L21.1297 12.5559L21.2296 12.5046L21.2795 12.4534L21.9039 12.0434L22.2036 11.8128L22.3285 11.7103L22.4784 11.5822L22.9779 11.0698L23.0778 10.9416L23.1527 10.8391L23.3026 10.6085L23.4774 10.2498L23.5773 9.94235L23.6523 9.63488L23.6772 9.50676L23.7022 9.37865L23.7272 9.22491L23.7522 8.99431V8.12313L23.7272 7.91815L23.7022 7.73879L23.6523 7.50818L23.6273 7.40569L23.6023 7.3032L23.5524 7.14947L23.4774 6.91886L23.4275 6.79075L23.3775 6.66263L23.1527 6.20142L22.928 5.81708L22.7531 5.56085L22.6782 5.45836L22.5533 5.30463L22.4284 5.15089L22.2536 4.97153V4.94591L22.1787 4.86904ZM24.4765 23.7018L24.4515 23.753L24.4015 23.8043L24.3766 23.8811L24.1768 24.1886L23.952 24.4961L23.8521 24.6242L23.7272 24.7779L23.5524 24.9829L23.1777 25.3929L22.6532 25.9053L22.6282 25.931L22.5533 26.0335L22.5283 26.0847L22.5034 26.1616L22.4284 26.469L22.4035 26.5972L22.3785 26.7765L22.3535 27.0327V27.4427L22.3785 27.6989L22.4035 27.8527L22.4284 27.9808L22.4534 28.0833L22.5034 28.2626L22.5283 28.3395L22.5533 28.4164L22.6033 28.4932L22.6282 28.5701L22.6532 28.6214V28.5701L22.7032 28.4676L22.928 28.032L23.1028 27.6477L23.2277 27.3658L23.3276 27.1352L23.5024 26.7253L23.6273 26.4178L23.6523 26.2897L23.7272 26.1616L23.8021 25.9566L23.877 25.7516L24.0019 25.3929V25.316L24.0768 25.1623L24.1268 25.0085L24.2267 24.6754L24.2767 24.4961L24.3516 24.2142L24.4515 23.8043L24.4765 23.7018ZM1.49856 23.6762L1.52354 23.7274L1.54851 23.8043L1.57349 23.9068V24.0093L1.59846 24.1117L1.64841 24.2911L1.69837 24.4705L1.84822 24.9829L2.04803 25.5722L2.14793 25.8541L2.22286 26.0591L2.27281 26.1872L2.32277 26.3153L2.4976 26.7509L2.67243 27.1609L2.79731 27.4427L2.94717 27.7758L3.17195 28.2114V28.2626L3.37176 28.6214V28.5701L3.39673 28.4932L3.44669 28.4164L3.47166 28.3395L3.52161 28.1601L3.54659 28.0577L3.57157 27.9295L3.59654 27.7758L3.62152 27.5452V27.084L3.59654 26.8534L3.57157 26.6484L3.54659 26.4947L3.52161 26.3665L3.49664 26.2641L3.47166 26.1872L3.37176 25.9822L3.24688 25.8285L2.79731 25.3673L2.54755 25.0854L2.34774 24.8548L2.19789 24.6754L2.07301 24.5217L1.9731 24.3936L1.74832 24.0861L1.54851 23.7786L1.49856 23.6762ZM22.4534 13.837L22.4035 13.8883L22.3036 13.9395L21.9289 14.247L21.5043 14.5544L21.2546 14.7338L20.9299 14.9644L20.6052 15.1694L20.3554 15.3744L20.2805 15.4L20.0307 15.5794L19.8559 15.7075L19.6811 15.8356L19.0817 16.2968L18.707 16.6043L18.5572 16.7324L18.3823 16.8861L18.1076 17.1423L17.683 17.5779L17.658 17.5267L17.7329 17.4498L17.7829 17.3473L17.9577 17.1167L18.0576 16.9886L18.1575 16.8605L18.3324 16.6555L19.1066 15.8612L19.3064 15.6819L19.4563 15.5537L19.6811 15.3744L19.781 15.2975L19.8809 15.2206L20.0557 15.0925L20.2056 14.99L20.4304 14.8363L20.6302 14.7082L20.805 14.6057L20.9798 14.5032L21.2546 14.3495L21.7041 14.1189L21.9789 13.9907L22.1537 13.9139L22.3285 13.8626L22.4534 13.837ZM3.62152 13.8626H3.69645H3.7464L3.87128 13.9139L4.04611 13.9907L4.27089 14.0932L4.52065 14.2214L4.97022 14.452L5.14505 14.5544L5.31988 14.6569L5.44476 14.7338L5.56964 14.8107L5.7195 14.9132L5.94428 15.0669L6.11912 15.195L6.21902 15.2719L6.31892 15.3488L6.54371 15.5281L6.71854 15.6819L6.91835 15.8612L7.5927 16.553L7.76753 16.758L7.89241 16.9117L7.99231 17.0399L8.09222 17.168L8.16715 17.2961L8.2171 17.4242L7.96734 17.168L7.74256 16.963L7.56772 16.8093L7.41787 16.6811L7.26801 16.553L7.14313 16.4505L6.91835 16.2712L6.61864 16.0406L6.09414 15.6562L5.84438 15.5025L5.59462 15.2975L5.12008 14.99L4.54563 14.5801L4.3708 14.452L4.09606 14.247L3.69645 13.9395L3.62152 13.8626ZM4.72046 25.2648L4.79539 25.2391L4.87032 25.2648L5.04515 25.3416L5.21998 25.3929L5.6196 25.4954L5.89433 25.5466L6.04419 25.5722L6.21902 25.5979L6.46878 25.6235H7.46782L7.66763 25.5979L7.84246 25.5722L8.2171 25.4954L8.317 25.4698L8.34198 25.4441L8.41691 25.4698L8.317 25.5466L8.19212 25.6235L8.04227 25.7004L7.91739 25.7516L7.84246 25.7772L7.54275 25.8541L7.39289 25.8797L7.16811 25.9053H6.61864L6.36888 25.8797L6.21902 25.8541L6.06916 25.8285L5.66955 25.726L5.44476 25.6491L5.31988 25.5979L5.14505 25.521L5.0951 25.4954L5.04515 25.4698L4.87032 25.3673L4.72046 25.2648ZM21.2296 25.2391H21.3045L21.2546 25.2904L21.1796 25.3416L21.0548 25.4185L20.7051 25.5979L20.5802 25.6491L20.2805 25.7516L20.1806 25.7772L20.0807 25.8028L19.9558 25.8285L19.8309 25.8541L19.6311 25.8797L19.3314 25.9053H19.0567L18.757 25.8797L18.5821 25.8541L18.4573 25.8285L18.3573 25.8028L18.2574 25.7772L17.9577 25.6747L17.633 25.4954L17.7329 25.4698L17.7579 25.4954L17.8828 25.521L18.0327 25.5466L18.1825 25.5722L18.3573 25.5979L18.5821 25.6235L18.9568 25.6491H19.0567L19.0817 25.6235L19.2065 25.6491L19.5812 25.6235L19.781 25.5979L19.9558 25.5722L20.1057 25.5466L20.2305 25.521L20.3554 25.4954L20.5552 25.4441L20.8549 25.3673L21.2296 25.2391ZM3.97118 26.4178V26.4947L3.99616 26.5203L4.02113 26.6484L4.04611 26.8021L4.07109 26.9559V27.1865L4.09606 27.2121V27.3146L4.14601 27.2633V27.2377L4.24592 27.1352L4.32085 27.0327L4.39577 26.879V26.7253L4.34582 26.6484L4.27089 26.5972L4.07109 26.4947L3.97118 26.4178ZM21.9289 26.469L21.6542 26.6484L21.5543 26.7765L21.6042 26.879L21.6542 26.9559L21.7791 27.1096L21.829 27.2121L21.879 27.289L21.9289 27.3402V26.879L21.9539 26.6996L21.9789 26.5459L22.0038 26.4434L22.0288 26.3922L21.9289 26.469ZM10.8895 23.9324L10.9145 23.9836L10.8895 24.0349L10.8146 24.163L10.7646 24.2399L10.6897 24.3424L10.5898 24.4705L10.2901 24.7779L10.1153 24.8548L10.1402 24.8036L10.2901 24.6242L10.4899 24.4192L10.6398 24.2142L10.8146 24.0093L10.8895 23.9324ZM15.0855 23.9068L15.2104 24.0349L15.3852 24.2399L15.5351 24.4448L15.7099 24.6498L15.8597 24.8804L15.8098 24.8292H15.7848L15.6599 24.7267L15.4102 24.4705L15.3103 24.3424L15.2354 24.2399L15.1854 24.163L15.1354 24.0861L15.1105 24.0093L15.0605 23.958L15.0855 23.9068Z" fill="#C80000"></path></svg>