<svg preserveAspectRatio="none" width="100%" height="100%" overflow="visible" style="display: block;" viewBox="0 0 29.2261 29.2261" fill="none" xmlns="http://www.w3.org/2000/svg">
<g id="entypo:line-graph" clip-path="url(#clip0_0_24)">
<path id="Vector" d="M1.0083 16.5581L3.00006 17.052L4.49936 14.6978L1.64982 13.9935C1.30973 13.9084 0.949778 13.9619 0.649147 14.1422C0.348516 14.3226 0.131832 14.6149 0.0467618 14.955C-0.0383082 15.2951 0.0152048 15.655 0.195528 15.9557C0.375852 16.2563 0.668215 16.473 1.0083 16.5581ZM27.0064 16.9395L20.4846 22.8081L12.8171 16.8737C12.6709 16.761 12.5026 16.6803 12.3232 16.637L11.3032 16.3827L9.80245 18.7369L11.4099 19.1358L19.7349 25.5772C19.9821 25.7675 20.288 25.8653 20.5997 25.8539C20.9114 25.8424 21.2092 25.7223 21.4418 25.5144L28.7892 18.8991C28.9186 18.7831 29.0237 18.6427 29.0985 18.4859C29.1733 18.3291 29.2163 18.159 29.2249 17.9855C29.2336 17.812 29.2079 17.6385 29.1491 17.475C29.0904 17.3115 28.9999 17.1613 28.8827 17.033C28.6461 16.7721 28.3157 16.6157 27.9639 16.5982C27.6121 16.5807 27.2678 16.7034 27.0064 16.9395ZM12.69 10.4922L19.8314 15.0646C20.1215 15.2501 20.472 15.3162 20.8097 15.2492C21.1474 15.1822 21.4461 14.9873 21.6434 14.7051L28.9894 4.12235C29.0892 3.97966 29.1597 3.81858 29.1968 3.64843C29.2339 3.47828 29.2369 3.30246 29.2054 3.13117C29.174 2.95988 29.1089 2.79654 29.0139 2.65061C28.9189 2.50468 28.7958 2.37908 28.6518 2.2811C28.362 2.08086 28.0046 2.00379 27.658 2.0668C27.3115 2.12982 27.0041 2.32777 26.8033 2.6172L20.1865 12.1464L13.0027 7.54765C12.7043 7.35782 12.3431 7.29324 11.9973 7.36791C11.8264 7.40495 11.6645 7.47573 11.5212 7.57609C11.378 7.67646 11.2561 7.8044 11.1629 7.95243L0.207506 25.1476C0.0790391 25.3476 0.0069827 25.5786 -0.00104997 25.8162C-0.00908265 26.0538 0.0472067 26.2891 0.16187 26.4973C0.276534 26.7055 0.445314 26.8789 0.650376 26.9991C0.855438 27.1193 1.08917 27.1819 1.32687 27.1803C1.55045 27.1806 1.77049 27.1245 1.96665 27.0172C2.16281 26.91 2.32876 26.755 2.44915 26.5666L12.69 10.4922Z" fill="var(--fill-0, #494949)"/>
</g>
<defs>
<clipPath id="clip0_0_24">
<rect width="29.2261" height="29.2261" fill="white"/>
</clipPath>
</defs>
</svg>
