<svg preserveAspectRatio="none" width="100%" height="100%" overflow="visible" style="display: block;" viewBox="0 0 35.0714 35.0714" fill="none" xmlns="http://www.w3.org/2000/svg">
<g id="mdi:github">
<path id="Vector" d="M17.5357 2.92261C15.6167 2.92261 13.7164 3.30059 11.9435 4.03497C10.1706 4.76934 8.55963 5.84573 7.20268 7.20268C4.4622 9.94316 2.92261 13.6601 2.92261 17.5357C2.92261 23.9947 7.11656 29.4746 12.918 31.4181C13.6486 31.535 13.8824 31.082 13.8824 30.6874V28.2178C9.83459 29.0946 8.97242 26.2597 8.97242 26.2597C8.30022 24.5646 7.35037 24.1116 7.35037 24.1116C6.02058 23.2055 7.45266 23.2348 7.45266 23.2348C8.91397 23.3371 9.68846 24.7399 9.68846 24.7399C10.9598 26.9611 13.1079 26.3035 13.9409 25.9528C14.0724 25.003 14.4523 24.36 14.8615 23.9947C11.6174 23.6293 8.21254 22.3726 8.21254 16.805C8.21254 15.183 8.76784 13.8824 9.71769 12.8449C9.57156 12.4796 9.0601 10.9598 9.86382 8.98704C9.86382 8.98704 11.0913 8.59248 13.8824 10.4776C15.0368 10.1561 16.2936 9.99534 17.5357 9.99534C18.7778 9.99534 20.0345 10.1561 21.1889 10.4776C23.98 8.59248 25.2075 8.98704 25.2075 8.98704C26.0113 10.9598 25.4998 12.4796 25.3537 12.8449C26.3035 13.8824 26.8588 15.183 26.8588 16.805C26.8588 22.3872 23.4394 23.6147 20.1806 23.98C20.7067 24.433 21.1889 25.3244 21.1889 26.6835V30.6874C21.1889 31.082 21.4228 31.5496 22.168 31.4181C27.9694 29.4599 32.1487 23.9947 32.1487 17.5357C32.1487 15.6167 31.7708 13.7164 31.0364 11.9435C30.302 10.1706 29.2256 8.55963 27.8687 7.20268C26.5117 5.84573 24.9008 4.76934 23.1279 4.03497C21.3549 3.30059 19.4547 2.92261 17.5357 2.92261Z" fill="var(--fill-0, #494949)"/>
</g>
</svg>
