<svg preserveAspectRatio="none" width="100%" height="100%" overflow="visible" style="display: block;" viewBox="0 0 35.0714 35.0714" fill="none" xmlns="http://www.w3.org/2000/svg">
<g id="famicons:logo-python">
<path id="Vector" d="M21.5086 2.49198C20.2352 2.28238 18.3714 2.1858 17.1062 2.19196C15.9203 2.1933 14.7367 2.29366 13.5675 2.49198C10.4344 3.03997 9.86382 4.1839 9.86382 6.2964V8.76784H17.5357V9.86382H7.37184C4.52503 9.86382 2.21456 13.2662 2.19196 17.4754V17.5357C2.19101 18.2716 2.26283 19.0058 2.40636 19.7276C3.04271 22.8978 5.02507 25.2075 7.37184 25.2075H8.76784V21.5086C8.76784 19.3646 10.1954 17.4021 12.5353 16.9808L13.2114 16.8966H21.5086C21.8571 16.898 22.2042 16.8519 22.5402 16.7596C23.3085 16.5544 23.9871 16.1003 24.4698 15.4683C24.9524 14.8363 25.2119 14.0621 25.2075 13.2668V6.2964C25.2075 4.31542 23.517 2.82146 21.5086 2.49198ZM13.3525 7.22662C13.0761 7.22757 12.8057 7.14642 12.5755 6.99346C12.3453 6.84051 12.1657 6.62264 12.0595 6.36748C11.9533 6.11233 11.9252 5.83138 11.9789 5.56027C12.0326 5.28916 12.1656 5.04009 12.361 4.84467C12.5565 4.64924 12.8055 4.51625 13.0766 4.46257C13.3477 4.40888 13.6287 4.43691 13.8839 4.54312C14.139 4.64932 14.3569 4.8289 14.5098 5.0591C14.6628 5.28929 14.7439 5.55972 14.743 5.83609C14.7431 6.01872 14.7072 6.19958 14.6373 6.36833C14.5675 6.53708 14.4651 6.6904 14.3359 6.81954C14.2068 6.94868 14.0534 7.0511 13.8847 7.12095C13.716 7.1908 13.5351 7.22671 13.3525 7.22662Z" fill="var(--fill-0, #494949)"/>
<path id="Vector_2" d="M32.5561 14.8642C31.8231 11.9455 29.925 9.86382 27.6995 9.86382H26.4864V13.1141C26.4864 15.8246 24.7054 17.7871 22.5313 18.1234C22.3117 18.1575 22.0898 18.1746 21.8675 18.1748H13.5682C13.2162 18.1744 12.8656 18.2193 12.525 18.3083C10.9968 18.7097 9.86382 19.9811 9.86382 21.6298V28.601C9.86382 30.5874 11.8599 31.7519 13.8183 32.3211C16.1616 33.0027 18.7145 33.126 21.5189 32.3211C23.3814 31.7889 25.2075 30.7128 25.2075 28.601V26.3035H17.5357V25.2075H27.6995C29.7161 25.2075 31.4635 23.4999 32.3198 21.0079C32.6958 19.8891 32.8849 18.716 32.8794 17.5357C32.8814 16.6353 32.7728 15.7381 32.5561 14.8642ZM21.6805 27.6735C21.9569 27.6725 22.2273 27.7537 22.4575 27.9066C22.6877 28.0596 22.8673 28.2775 22.9735 28.5326C23.0797 28.7878 23.1078 29.0687 23.0541 29.3398C23.0004 29.611 22.8674 29.86 22.672 30.0554C22.4765 30.2509 22.2275 30.3839 21.9564 30.4375C21.6853 30.4912 21.4043 30.4632 21.1491 30.357C20.894 30.2508 20.6761 30.0712 20.5232 29.841C20.3702 29.6108 20.2891 29.3404 20.29 29.064C20.2899 28.8814 20.3258 28.7005 20.3957 28.5318C20.4655 28.363 20.5679 28.2097 20.6971 28.0806C20.8262 27.9514 20.9796 27.849 21.1483 27.7792C21.317 27.7093 21.4979 27.6734 21.6805 27.6735Z" fill="var(--fill-0, #494949)"/>
</g>
</svg>
